<svg id="favicon" xmlns="http://www.w3.org/2000/svg" viewBox="0 0 32 32"><style>.st3{fill:#3f1514}</style><ellipse id="Oval" cx="16" cy="16" rx="16" ry="16" fill="#7bb24a"/><ellipse id="Oval_1_" cx="16" cy="16" rx="13.5" ry="13.5" fill="#c9de7b"/><ellipse id="Oval_2_" cx="16" cy="16" rx="12.5" ry="12.6" fill="#c24e4e"/><ellipse id="Oval_3_" transform="rotate(-28.495 13.106 9.413)" class="st3" cx="13.1" cy="9.4" rx=".3" ry=".9"/><ellipse id="Oval_4_" transform="rotate(-28.495 11.734 9.11)" class="st3" cx="11.7" cy="9.1" rx=".3" ry=".9"/><ellipse id="Oval_5_" transform="rotate(-41.565 12.249 6.947)" class="st3" cx="12.2" cy="6.9" rx=".8" ry=".4"/><ellipse id="Oval_6_" transform="rotate(-10.642 14.963 6.75)" class="st3" cx="15" cy="6.8" rx=".3" ry=".9"/><ellipse id="Oval_7_" transform="rotate(-28.495 12.165 14.4)" class="st3" cx="12.2" cy="14.4" rx=".3" ry=".9"/><ellipse id="Oval_8_" transform="rotate(-28.495 10.805 14.09)" class="st3" cx="10.8" cy="14.1" rx=".3" ry=".9"/><ellipse id="Oval_9_" transform="rotate(-41.565 11.308 11.935)" class="st3" cx="11.3" cy="11.9" rx=".8" ry=".4"/><ellipse id="Oval_10_" transform="rotate(-28.495 12.699 20.74)" class="st3" cx="12.7" cy="20.7" rx=".3" ry=".9"/><ellipse id="Oval_11_" transform="rotate(-28.495 11.338 20.43)" class="st3" cx="11.3" cy="20.4" rx=".3" ry=".9"/><ellipse id="Oval_12_" transform="rotate(-41.565 11.85 18.287)" class="st3" cx="11.9" cy="18.3" rx=".8" ry=".4"/><ellipse id="Oval_13_" transform="rotate(-28.495 13.783 25.738)" class="st3" cx="13.8" cy="25.7" rx=".3" ry=".9"/><ellipse id="Oval_14_" transform="rotate(-41.565 14.296 23.575)" class="st3" cx="14.3" cy="23.6" rx=".8" ry=".4"/><ellipse id="Oval_15_" transform="rotate(-28.495 13.106 12.537)" class="st3" cx="13.1" cy="12.5" rx=".3" ry=".9"/><ellipse id="Oval_16_" transform="rotate(-28.495 9.247 10.21)" class="st3" cx="9.2" cy="10.2" rx=".3" ry=".9"/><ellipse id="Oval_17_" transform="rotate(-79.292 7.942 13.61)" class="st3" cx="7.9" cy="13.6" rx=".9" ry=".3"/><ellipse id="Oval_18_" transform="rotate(-79.292 6.521 16.356)" class="st3" cx="6.5" cy="16.4" rx=".9" ry=".3"/><ellipse id="Oval_19_" transform="rotate(-72.398 8.728 19.572)" class="st3" cx="8.7" cy="19.6" rx=".4" ry=".8"/><ellipse id="Oval_20_" transform="rotate(-30.545 10.282 23.571)" class="st3" cx="10.3" cy="23.6" rx=".3" ry=".9"/><ellipse id="Oval_21_" transform="rotate(-41.565 9.753 16.315)" class="st3" cx="9.8" cy="16.3" rx=".8" ry=".4"/><ellipse id="Oval_22_" transform="rotate(-61.505 18.828 9.345)" class="st3" cx="18.8" cy="9.3" rx=".9" ry=".3"/><ellipse id="Oval_23_" transform="rotate(-61.505 20.192 9.025)" class="st3" cx="20.2" cy="9" rx=".9" ry=".3"/><ellipse id="Oval_24_" transform="rotate(-48.433 19.681 6.874)" class="st3" cx="19.7" cy="6.9" rx=".4" ry=".8"/><ellipse id="Oval_25_" transform="rotate(-61.505 19.762 14.323)" class="st3" cx="19.8" cy="14.3" rx=".9" ry=".3"/><ellipse id="Oval_26_" transform="rotate(-61.505 21.138 14.01)" class="st3" cx="21.1" cy="14" rx=".9" ry=".3"/><ellipse id="Oval_27_" transform="rotate(-48.433 20.616 11.852)" class="st3" cx="20.6" cy="11.9" rx=".4" ry=".8"/><ellipse id="Oval_28_" transform="rotate(-61.505 19.227 20.66)" class="st3" cx="19.2" cy="20.7" rx=".9" ry=".3"/><ellipse id="Oval_29_" transform="rotate(-61.505 20.596 20.361)" class="st3" cx="20.6" cy="20.4" rx=".9" ry=".3"/><ellipse id="Oval_30_" transform="rotate(-48.433 20.08 18.19)" class="st3" cx="20.1" cy="18.2" rx=".4" ry=".8"/><ellipse id="Oval_31_" transform="rotate(-61.505 18.15 25.654)" class="st3" cx="18.2" cy="25.7" rx=".9" ry=".3"/><ellipse id="Oval_32_" transform="rotate(-48.433 17.627 23.495)" class="st3" cx="17.6" cy="23.5" rx=".4" ry=".8"/><ellipse id="Oval_33_" transform="rotate(-61.505 18.828 12.469)" class="st3" cx="18.8" cy="12.5" rx=".9" ry=".3"/><ellipse id="Oval_34_" transform="rotate(-61.505 22.682 10.132)" class="st3" cx="22.7" cy="10.1" rx=".9" ry=".3"/><ellipse id="Oval_35_" transform="rotate(-10.704 23.99 13.53)" class="st3" cx="24" cy="13.5" rx=".3" ry=".9"/><ellipse id="Oval_36_" transform="rotate(-10.704 25.407 16.273)" class="st3" cx="25.4" cy="16.3" rx=".3" ry=".9"/><ellipse id="Oval_37_" transform="rotate(-17.598 23.203 19.489)" class="st3" cx="23.2" cy="19.5" rx=".8" ry=".4"/><ellipse id="Oval_38_" transform="rotate(-59.455 21.645 23.502)" class="st3" cx="21.6" cy="23.5" rx=".9" ry=".3"/><ellipse id="Oval_39_" transform="rotate(-48.433 22.173 16.236)" class="st3" cx="22.2" cy="16.2" rx=".4" ry=".8"/></svg>