<?xml version="1.0" encoding="UTF-8"?>
<svg width="35px" height="34px" viewBox="0 0 35 34" version="1.1" xmlns="http://www.w3.org/2000/svg" xmlns:xlink="http://www.w3.org/1999/xlink">
    <!-- Generator: Sketch 48.2 (47327) - http://www.bohemiancoding.com/sketch -->
    <title>circles</title>
    <desc>Created with Sketch.</desc>
    <defs></defs>
    <g id="Page-1" stroke="none" stroke-width="1" fill="none" fill-rule="evenodd">
        <path d="M17.57,33.9 C8.22599198,33.905542 0.642062134,26.3439836 0.62,17 C0.62,7.68 8.22,0.1 17.57,0.1 C26.92,0.1 34.52,7.68 34.52,17 C34.52,26.32 26.92,33.9 17.57,33.9 Z M17.57,3.6 C10.1589834,3.59445303 4.14205453,9.58901412 4.12,17 C4.12,24.4282299 10.1417701,30.45 17.57,30.45 C24.9982299,30.45 31.02,24.4282299 31.02,17 C31.02,9.61 24.98,3.6 17.57,3.6 Z M17.57,27.36 C11.84,27.36 7.17,22.71 7.17,17 C7.17,11.2562386 11.8262386,6.6 17.57,6.6 C23.3137614,6.6 27.97,11.2562386 27.97,17 C27.97,22.71 23.3,27.36 17.57,27.36 Z M17.57,9.93 C13.6581959,9.92446709 10.4810308,13.0882076 10.47,17 C10.47,20.9212217 13.6487783,24.1 17.57,24.1 C21.4912217,24.1 24.67,20.9212217 24.67,17 C24.67,13.1 21.48,9.93 17.57,9.93 Z M17.57,21.03 C15.342669,21.0300068 13.5355132,19.2273242 13.53,17 C13.53,14.7687696 15.3387696,12.96 17.57,12.96 C19.8012304,12.96 21.61,14.7687696 21.61,17 C21.6044868,19.2273242 19.797331,21.0300068 17.57,21.03 Z" id="circles" fill="#FFFFFF" fill-rule="nonzero"></path>
    </g>
</svg>