<?xml version="1.0" encoding="utf-8"?>
<!-- Generator: Adobe Illustrator 22.0.1, SVG Export Plug-In . SVG Version: 6.00 Build 0)  -->
<svg version="1.1" id="Layer_1" xmlns="http://www.w3.org/2000/svg" xmlns:xlink="http://www.w3.org/1999/xlink" x="0px" y="0px"
	 viewBox="0 0 32 32" style="enable-background:new 0 0 32 32;" xml:space="preserve">
<style type="text/css">
	.st0{fill:#7BB24A;}
	.st1{fill:#C9DE7B;}
	.st2{fill:#C24E4E;}
	.st3{fill:#3F1514;}
</style>
<ellipse id="Oval" class="st0" cx="16" cy="16" rx="16" ry="16"/>
<ellipse id="Oval_1_" class="st1" cx="16" cy="16" rx="13.5" ry="13.5"/>
<ellipse id="Oval_2_" class="st2" cx="15.9" cy="16" rx="12.5" ry="12.6"/>
<g id="Group" transform="translate(42.000000, 37.000000)">
	
		<ellipse id="Oval_3_" transform="matrix(0.8789 -0.4771 0.4771 0.8789 9.6606 -17.1252)" class="st3" cx="-28.9" cy="-27.6" rx="0.3" ry="0.9"/>
	
		<ellipse id="Oval_4_" transform="matrix(0.8789 -0.4771 0.4771 0.8789 9.6385 -17.8166)" class="st3" cx="-30.3" cy="-27.9" rx="0.3" ry="0.9"/>
	
		<ellipse id="Oval_5_" transform="matrix(0.7482 -0.6635 0.6635 0.7482 12.4477 -27.3047)" class="st3" cx="-29.8" cy="-30.1" rx="0.8" ry="0.4"/>
	
		<ellipse id="Oval_6_" transform="matrix(0.9828 -0.1848 0.1848 0.9828 5.1251 -5.519)" class="st3" cx="-27" cy="-30.2" rx="0.3" ry="0.9"/>
	
		<ellipse id="Oval_7_" transform="matrix(0.8789 -0.4771 0.4771 0.8789 7.1673 -16.97)" class="st3" cx="-29.8" cy="-22.6" rx="0.3" ry="0.9"/>
	
		<ellipse id="Oval_8_" transform="matrix(0.8789 -0.4771 0.4771 0.8789 7.1504 -17.6565)" class="st3" cx="-31.2" cy="-22.9" rx="0.3" ry="0.9"/>
	
		<ellipse id="Oval_9_" transform="matrix(0.7482 -0.6635 0.6635 0.7482 8.9012 -26.6731)" class="st3" cx="-30.7" cy="-25.1" rx="0.8" ry="0.4"/>
	
		<ellipse id="Oval_10_" transform="matrix(0.8789 -0.4771 0.4771 0.8789 4.2072 -15.9475)" class="st3" cx="-29.3" cy="-16.3" rx="0.3" ry="0.9"/>
	
		<ellipse id="Oval_11_" transform="matrix(0.8789 -0.4771 0.4771 0.8789 4.1902 -16.6341)" class="st3" cx="-30.7" cy="-16.6" rx="0.3" ry="0.9"/>
	
		<ellipse id="Oval_12_" transform="matrix(0.7482 -0.6635 0.6635 0.7482 4.8231 -24.7145)" class="st3" cx="-30.1" cy="-18.7" rx="0.8" ry="0.4"/>
	
		<ellipse id="Oval_13_" transform="matrix(0.8789 -0.4771 0.4771 0.8789 1.954 -14.8249)" class="st3" cx="-28.2" cy="-11.3" rx="0.3" ry="0.9"/>
	
		<ellipse id="Oval_14_" transform="matrix(0.7482 -0.6635 0.6635 0.7482 1.9311 -21.7594)" class="st3" cx="-27.7" cy="-13.4" rx="0.8" ry="0.4"/>
	
		<ellipse id="Oval_15_" transform="matrix(0.8789 -0.4771 0.4771 0.8789 8.1704 -16.7468)" class="st3" cx="-28.9" cy="-24.5" rx="0.3" ry="0.9"/>
	
		<ellipse id="Oval_16_" transform="matrix(0.8789 -0.4771 0.4771 0.8789 8.8129 -18.8701)" class="st3" cx="-32.8" cy="-26.8" rx="0.3" ry="0.9"/>
	
		<ellipse id="Oval_17_" transform="matrix(0.1858 -0.9826 0.9826 0.1858 -4.7479 -52.5084)" class="st3" cx="-34.1" cy="-23.4" rx="0.9" ry="0.3"/>
	
		<ellipse id="Oval_18_" transform="matrix(0.1858 -0.9826 0.9826 0.1858 -8.6027 -51.6692)" class="st3" cx="-35.5" cy="-20.6" rx="0.9" ry="0.3"/>
	
		<ellipse id="Oval_19_" transform="matrix(0.3024 -0.9532 0.9532 0.3024 -6.5985 -43.8706)" class="st3" cx="-33.3" cy="-17.4" rx="0.4" ry="0.8"/>
	
		<ellipse id="Oval_20_" transform="matrix(0.8612 -0.5082 0.5082 0.8612 2.423 -17.9812)" class="st3" cx="-31.7" cy="-13.4" rx="0.3" ry="0.9"/>
	
		<ellipse id="Oval_21_" transform="matrix(0.7482 -0.6635 0.6635 0.7482 5.6039 -26.6021)" class="st3" cx="-32.2" cy="-20.7" rx="0.8" ry="0.4"/>
</g>
<g id="Group_1_" transform="translate(119.000000, 39.000000)">
	
		<ellipse id="Oval_22_" transform="matrix(0.4771 -0.8789 0.8789 0.4771 -26.3208 -103.5453)" class="st3" cx="-100.2" cy="-29.7" rx="0.9" ry="0.3"/>
	
		<ellipse id="Oval_23_" transform="matrix(0.4771 -0.8789 0.8789 0.4771 -25.3259 -102.5137)" class="st3" cx="-98.8" cy="-30" rx="0.9" ry="0.3"/>
	
		<ellipse id="Oval_24_" transform="matrix(0.6635 -0.7482 0.7482 0.6635 -9.3889 -85.1245)" class="st3" cx="-99.3" cy="-32.1" rx="0.4" ry="0.8"/>
	
		<ellipse id="Oval_25_" transform="matrix(0.4771 -0.8789 0.8789 0.4771 -30.2076 -100.1213)" class="st3" cx="-99.2" cy="-24.7" rx="0.9" ry="0.3"/>
	
		<ellipse id="Oval_26_" transform="matrix(0.4771 -0.8789 0.8789 0.4771 -29.2134 -99.0751)" class="st3" cx="-97.9" cy="-25" rx="0.9" ry="0.3"/>
	
		<ellipse id="Oval_27_" transform="matrix(0.6635 -0.7482 0.7482 0.6635 -12.799 -82.75)" class="st3" cx="-98.4" cy="-27.1" rx="0.4" ry="0.8"/>
	
		<ellipse id="Oval_28_" transform="matrix(0.4771 -0.8789 0.8789 0.4771 -36.0577 -97.2772)" class="st3" cx="-99.8" cy="-18.3" rx="0.9" ry="0.3"/>
	
		<ellipse id="Oval_29_" transform="matrix(0.4771 -0.8789 0.8789 0.4771 -35.0788 -96.2305)" class="st3" cx="-98.4" cy="-18.6" rx="0.9" ry="0.3"/>
	
		<ellipse id="Oval_30_" transform="matrix(0.6635 -0.7482 0.7482 0.6635 -17.7209 -81.0175)" class="st3" cx="-98.9" cy="-20.8" rx="0.4" ry="0.8"/>
	
		<ellipse id="Oval_31_" transform="matrix(0.4771 -0.8789 0.8789 0.4771 -41.0096 -95.6123)" class="st3" cx="-100.8" cy="-13.3" rx="0.9" ry="0.3"/>
	
		<ellipse id="Oval_32_" transform="matrix(0.6635 -0.7482 0.7482 0.6635 -22.516 -81.0679)" class="st3" cx="-101.4" cy="-15.5" rx="0.4" ry="0.8"/>
	
		<ellipse id="Oval_33_" transform="matrix(0.4771 -0.8789 0.8789 0.4771 -29.0663 -101.9117)" class="st3" cx="-100.2" cy="-26.5" rx="0.9" ry="0.3"/>
	
		<ellipse id="Oval_34_" transform="matrix(0.4771 -0.8789 0.8789 0.4771 -24.9971 -99.7462)" class="st3" cx="-96.3" cy="-28.9" rx="0.9" ry="0.3"/>
	
		<ellipse id="Oval_35_" transform="matrix(0.9826 -0.1858 0.1858 0.9826 3.0778 -18.0972)" class="st3" cx="-95" cy="-25.5" rx="0.3" ry="0.9"/>
	
		<ellipse id="Oval_36_" transform="matrix(0.9826 -0.1858 0.1858 0.9826 2.5928 -17.7862)" class="st3" cx="-93.6" cy="-22.7" rx="0.3" ry="0.9"/>
	
		<ellipse id="Oval_37_" transform="matrix(0.9532 -0.3024 0.3024 0.9532 1.4147 -29.887)" class="st3" cx="-95.8" cy="-19.5" rx="0.8" ry="0.4"/>
	
		<ellipse id="Oval_38_" transform="matrix(0.5082 -0.8612 0.8612 0.5082 -34.533 -91.4715)" class="st3" cx="-97.4" cy="-15.5" rx="0.9" ry="0.3"/>
	
		<ellipse id="Oval_39_" transform="matrix(0.6635 -0.7482 0.7482 0.6635 -15.5554 -80.1097)" class="st3" cx="-96.8" cy="-22.8" rx="0.4" ry="0.8"/>
</g>
</svg>
